<svg width="216" height="277" viewBox="0 0 216 277" fill="none" xmlns="http://www.w3.org/2000/svg">
<path d="M115.417 182.939L112.426 129.162C115.782 128.394 118.863 126.707 121.343 124.2C124.783 120.718 126.664 116.105 126.638 111.21L126.559 97.8516V97.845L125.149 44.5727C125.088 43.4506 124.182 42.5267 123.036 42.4825C121.82 42.435 120.795 43.3818 120.749 44.5973L119.792 94.4394L111.521 94.4869L110.368 44.6562C110.309 43.4801 109.358 42.5153 108.157 42.4711C106.891 42.4268 105.827 43.4162 105.782 44.6841L104.907 94.5246L96.6362 94.5721L95.4026 44.7431C95.342 43.6193 94.4345 42.6987 93.2878 42.6529C92.0724 42.6054 91.0486 43.5522 91.0011 44.7676L89.9118 98.0334L89.9085 98.0629L89.9871 111.42C90.0363 120.144 96.2102 127.421 104.399 129.21L102.483 183.014L102.484 183.353C102.597 186.924 105.585 189.727 109.158 189.612C112.727 189.499 115.53 186.512 115.417 182.939Z" fill="#272727"/>
<path d="M84.0032 142.797L84.0442 142.791C78.4698 139.9 73.3 135.955 68.8607 130.91C51.0744 110.701 51.8704 79.6327 70.6036 60.2951C83.7804 46.6908 102.496 41.847 119.63 45.7358C128.893 47.8374 137.695 52.4798 144.906 59.6923C154.331 69.1179 159.386 81.2528 160.078 93.5893C160.743 105.464 170.324 114.862 182.215 114.862C194.899 114.862 205.004 104.239 204.365 91.5728C204.023 84.8042 202.971 78.0667 201.205 71.4783C196.969 55.679 188.656 40.7445 176.259 28.3458C138.938 -8.97808 78.9956 -9.51536 41.0443 27.1647C29.3238 38.4938 21.117 52.044 16.3944 66.4854C32.772 127.28 84.0032 142.797 84.0032 142.797Z" fill="#272727"/>
<path d="M14.5122 120.121C18.6172 136.474 27.0599 151.961 39.8469 164.749C58.6816 183.584 83.366 193 108.05 193V192.995L108.052 193H108.055H161.115C180.411 193 196.057 177.356 196.057 158.06V148.663H149.962H108.052L108.05 148.668V148.647C103.927 148.647 99.8059 148.175 95.7762 147.206C91.7367 146.229 87.802 144.744 84.0442 142.791L84.0032 142.797C84.0032 142.797 32.772 127.28 16.3944 66.4854C10.72 83.841 10.0844 102.484 14.5122 120.121Z" fill="white"/>
<path d="M20.016 248.912C16.848 248.912 14.128 248.368 11.856 247.28C9.584 246.16 7.728 244.704 6.288 242.912C4.848 241.088 3.776 239.136 3.072 237.056C2.4 234.944 2.064 232.896 2.064 230.912V229.856C2.064 227.68 2.416 225.536 3.12 223.424C3.824 221.28 4.896 219.344 6.336 217.616C7.808 215.888 9.648 214.512 11.856 213.488C14.096 212.432 16.736 211.904 19.776 211.904C22.944 211.904 25.744 212.496 28.176 213.68C30.608 214.864 32.544 216.512 33.984 218.624C35.456 220.704 36.32 223.152 36.576 225.968H28.656C28.432 224.56 27.92 223.36 27.12 222.368C26.32 221.376 25.28 220.608 24 220.064C22.752 219.52 21.344 219.248 19.776 219.248C18.208 219.248 16.816 219.52 15.6 220.064C14.384 220.608 13.36 221.376 12.528 222.368C11.728 223.36 11.104 224.544 10.656 225.92C10.24 227.264 10.032 228.768 10.032 230.432C10.032 232.064 10.24 233.568 10.656 234.944C11.104 236.288 11.744 237.472 12.576 238.496C13.44 239.488 14.496 240.256 15.744 240.8C16.992 241.312 18.416 241.568 20.016 241.568C22.448 241.568 24.496 240.976 26.16 239.792C27.856 238.608 28.88 236.976 29.232 234.896H37.104C36.816 237.456 35.952 239.808 34.512 241.952C33.104 244.064 31.168 245.76 28.704 247.04C26.272 248.288 23.376 248.912 20.016 248.912ZM57.7826 248V240.224H56.4866V231.776C56.4866 230.432 56.1666 229.424 55.5266 228.752C54.8866 228.08 53.8626 227.744 52.4546 227.744C51.7506 227.744 50.8226 227.76 49.6706 227.792C48.5186 227.824 47.3346 227.872 46.1186 227.936C44.9026 228 43.7986 228.064 42.8066 228.128V221.648C43.5426 221.584 44.4066 221.52 45.3986 221.456C46.3906 221.392 47.4146 221.344 48.4706 221.312C49.5266 221.28 50.5186 221.264 51.4466 221.264C54.1346 221.264 56.3906 221.648 58.2146 222.416C60.0706 223.184 61.4786 224.352 62.4386 225.92C63.3986 227.456 63.8786 229.44 63.8786 231.872V248H57.7826ZM49.3826 248.672C47.4946 248.672 45.8306 248.336 44.3906 247.664C42.9826 246.992 41.8786 246.032 41.0786 244.784C40.2786 243.504 39.8786 241.984 39.8786 240.224C39.8786 238.304 40.3746 236.736 41.3666 235.52C42.3586 234.272 43.7506 233.36 45.5426 232.784C47.3346 232.176 49.3986 231.872 51.7346 231.872H57.3506V236.144H51.6866C50.3426 236.144 49.3026 236.48 48.5666 237.152C47.8626 237.792 47.5106 238.672 47.5106 239.792C47.5106 240.848 47.8626 241.712 48.5666 242.384C49.3026 243.024 50.3426 243.344 51.6866 243.344C52.5506 243.344 53.3186 243.2 53.9906 242.912C54.6946 242.592 55.2706 242.064 55.7186 241.328C56.1666 240.592 56.4226 239.568 56.4866 238.256L58.3106 240.176C58.1506 242 57.7026 243.536 56.9666 244.784C56.2626 246.032 55.2706 246.992 53.9906 247.664C52.7426 248.336 51.2066 248.672 49.3826 248.672ZM70.3946 248V221.696H76.4906V232.976H76.0586C76.0586 230.288 76.3946 228.048 77.0666 226.256C77.7706 224.464 78.8266 223.12 80.2346 222.224C81.6426 221.328 83.3546 220.88 85.3706 220.88H85.7066C88.7786 220.88 91.1146 221.888 92.7146 223.904C94.3466 225.888 95.1626 228.912 95.1626 232.976V248H87.4826V232.544C87.4826 231.136 87.0666 229.984 86.2346 229.088C85.4026 228.192 84.2826 227.744 82.8746 227.744C81.4346 227.744 80.2666 228.208 79.3706 229.136C78.5066 230.032 78.0746 231.216 78.0746 232.688V248H70.3946ZM144.58 248V221.696H152.26V248H144.58ZM141.076 227.36V221.696H152.26V227.36H141.076ZM147.556 219.104C146.116 219.104 145.044 218.736 144.34 218C143.668 217.232 143.332 216.272 143.332 215.12C143.332 213.936 143.668 212.976 144.34 212.24C145.044 211.472 146.116 211.088 147.556 211.088C148.996 211.088 150.052 211.472 150.724 212.24C151.428 212.976 151.78 213.936 151.78 215.12C151.78 216.272 151.428 217.232 150.724 218C150.052 218.736 148.996 219.104 147.556 219.104ZM159.363 248V221.696H165.459V232.976H165.027C165.027 230.288 165.363 228.048 166.035 226.256C166.739 224.464 167.795 223.12 169.203 222.224C170.611 221.328 172.323 220.88 174.339 220.88H174.675C177.747 220.88 180.083 221.888 181.683 223.904C183.315 225.888 184.131 228.912 184.131 232.976V248H176.451V232.544C176.451 231.136 176.035 229.984 175.203 229.088C174.371 228.192 173.251 227.744 171.843 227.744C170.403 227.744 169.235 228.208 168.339 229.136C167.475 230.032 167.043 231.216 167.043 232.688V248H159.363ZM206.564 248V240.224H205.268V231.776C205.268 230.432 204.948 229.424 204.308 228.752C203.668 228.08 202.644 227.744 201.236 227.744C200.532 227.744 199.604 227.76 198.452 227.792C197.3 227.824 196.116 227.872 194.9 227.936C193.684 228 192.58 228.064 191.588 228.128V221.648C192.324 221.584 193.188 221.52 194.18 221.456C195.172 221.392 196.196 221.344 197.252 221.312C198.308 221.28 199.3 221.264 200.228 221.264C202.916 221.264 205.172 221.648 206.996 222.416C208.852 223.184 210.26 224.352 211.22 225.92C212.18 227.456 212.66 229.44 212.66 231.872V248H206.564ZM198.164 248.672C196.276 248.672 194.612 248.336 193.172 247.664C191.764 246.992 190.66 246.032 189.86 244.784C189.06 243.504 188.66 241.984 188.66 240.224C188.66 238.304 189.156 236.736 190.148 235.52C191.14 234.272 192.532 233.36 194.324 232.784C196.116 232.176 198.18 231.872 200.516 231.872H206.132V236.144H200.468C199.124 236.144 198.084 236.48 197.348 237.152C196.644 237.792 196.292 238.672 196.292 239.792C196.292 240.848 196.644 241.712 197.348 242.384C198.084 243.024 199.124 243.344 200.468 243.344C201.332 243.344 202.1 243.2 202.772 242.912C203.476 242.592 204.052 242.064 204.5 241.328C204.948 240.592 205.204 239.568 205.268 238.256L207.092 240.176C206.932 242 206.484 243.536 205.748 244.784C205.044 246.032 204.052 246.992 202.772 247.664C201.524 248.336 199.988 248.672 198.164 248.672Z" fill="#272727"/>
<path d="M113.659 248.336C111.003 248.336 108.859 248.016 107.227 247.376C105.595 246.704 104.395 245.6 103.627 244.064C102.891 242.496 102.523 240.384 102.523 237.728V214.592H109.675V238.016C109.675 239.264 109.995 240.224 110.635 240.896C111.307 241.536 112.251 241.856 113.467 241.856H117.355V248.336H113.659ZM98.5391 227.312V221.696H117.355V227.312H98.5391ZM134.472 248.336C131.816 248.336 129.672 248.016 128.04 247.376C126.408 246.704 125.208 245.6 124.44 244.064C123.704 242.496 123.336 240.384 123.336 237.728V214.592H130.488V238.016C130.488 239.264 130.808 240.224 131.448 240.896C132.12 241.536 133.064 241.856 134.28 241.856H138.168V248.336H134.472ZM119.352 227.312V221.696H138.168V227.312H119.352Z" fill="white"/>
<path d="M86.36 273L91.34 258.4H95.98L101.1 273H98.18L93.84 260.34L94.86 260.78H92.36L93.4 260.34L89.2 273H86.36ZM89.84 269.12L90.74 266.72H96.66L97.54 269.12H89.84ZM103.049 277V262.14H105.249V266.82L104.909 266.8C104.962 265.693 105.189 264.767 105.589 264.02C106.002 263.273 106.549 262.72 107.229 262.36C107.909 261.987 108.669 261.8 109.509 261.8C110.282 261.8 110.975 261.94 111.589 262.22C112.215 262.5 112.749 262.893 113.189 263.4C113.642 263.907 113.989 264.5 114.229 265.18C114.469 265.847 114.589 266.567 114.589 267.34V267.76C114.589 268.547 114.469 269.28 114.229 269.96C114.002 270.627 113.662 271.22 113.209 271.74C112.769 272.247 112.235 272.647 111.609 272.94C110.982 273.22 110.282 273.36 109.509 273.36C108.695 273.36 107.949 273.193 107.269 272.86C106.602 272.513 106.062 271.987 105.649 271.28C105.235 270.56 105.002 269.633 104.949 268.5L105.829 269.84V277H103.049ZM108.809 271.02C109.409 271.02 109.929 270.873 110.369 270.58C110.822 270.287 111.175 269.88 111.429 269.36C111.682 268.827 111.809 268.227 111.809 267.56C111.809 266.867 111.682 266.267 111.429 265.76C111.175 265.253 110.822 264.86 110.369 264.58C109.929 264.287 109.409 264.14 108.809 264.14C108.262 264.14 107.755 264.26 107.289 264.5C106.835 264.74 106.462 265.093 106.169 265.56C105.889 266.027 105.749 266.587 105.749 267.24V268.04C105.749 268.667 105.895 269.2 106.189 269.64C106.482 270.08 106.862 270.42 107.329 270.66C107.795 270.9 108.289 271.02 108.809 271.02ZM117.033 277V262.14H119.233V266.82L118.893 266.8C118.946 265.693 119.173 264.767 119.573 264.02C119.986 263.273 120.533 262.72 121.213 262.36C121.893 261.987 122.653 261.8 123.493 261.8C124.266 261.8 124.96 261.94 125.573 262.22C126.2 262.5 126.733 262.893 127.173 263.4C127.626 263.907 127.973 264.5 128.213 265.18C128.453 265.847 128.573 266.567 128.573 267.34V267.76C128.573 268.547 128.453 269.28 128.213 269.96C127.986 270.627 127.646 271.22 127.193 271.74C126.753 272.247 126.22 272.647 125.593 272.94C124.966 273.22 124.266 273.36 123.493 273.36C122.68 273.36 121.933 273.193 121.253 272.86C120.586 272.513 120.046 271.987 119.633 271.28C119.22 270.56 118.986 269.633 118.933 268.5L119.813 269.84V277H117.033ZM122.793 271.02C123.393 271.02 123.913 270.873 124.353 270.58C124.806 270.287 125.16 269.88 125.413 269.36C125.666 268.827 125.793 268.227 125.793 267.56C125.793 266.867 125.666 266.267 125.413 265.76C125.16 265.253 124.806 264.86 124.353 264.58C123.913 264.287 123.393 264.14 122.793 264.14C122.246 264.14 121.74 264.26 121.273 264.5C120.82 264.74 120.446 265.093 120.153 265.56C119.873 266.027 119.733 266.587 119.733 267.24V268.04C119.733 268.667 119.88 269.2 120.173 269.64C120.466 270.08 120.846 270.42 121.313 270.66C121.78 270.9 122.273 271.02 122.793 271.02Z" fill="white"/>
</svg>
