<svg width="194" height="193" viewBox="0 0 194 193" fill="none" xmlns="http://www.w3.org/2000/svg">
<path d="M104.417 182.939L101.426 129.162C104.782 128.394 107.863 126.707 110.343 124.2C113.783 120.718 115.664 116.105 115.638 111.21L115.559 97.8516V97.845L114.149 44.5727C114.088 43.4506 113.182 42.5267 112.036 42.4825C110.82 42.435 109.795 43.3818 109.749 44.5973L108.792 94.4394L100.521 94.4869L99.3682 44.6562C99.3092 43.4801 98.3575 42.5153 97.1568 42.4711C95.8905 42.4268 94.8274 43.4162 94.7816 44.6841L93.9068 94.5246L85.6362 94.5721L84.4026 44.7431C84.342 43.6193 83.4345 42.6987 82.2878 42.6529C81.0724 42.6054 80.0486 43.5522 80.0011 44.7676L78.9118 98.0334L78.9085 98.0629L78.9871 111.42C79.0363 120.144 85.2102 127.421 93.399 129.21L91.4825 183.014L91.4841 183.353C91.5971 186.924 94.585 189.727 98.1577 189.612C101.727 189.499 104.53 186.512 104.417 182.939Z" fill="#272727"/>
<path d="M73.0032 142.797L73.0442 142.791C67.4698 139.9 62.3 135.955 57.8607 130.91C40.0744 110.701 40.8704 79.6327 59.6036 60.2951C72.7804 46.6908 91.4956 41.847 108.63 45.7358C117.893 47.8374 126.695 52.4798 133.906 59.6923C143.331 69.1179 148.386 81.2528 149.078 93.5893C149.743 105.464 159.324 114.862 171.215 114.862C183.899 114.862 194.004 104.239 193.365 91.5728C193.023 84.8042 191.971 78.0667 190.205 71.4783C185.969 55.679 177.656 40.7445 165.259 28.3458C127.938 -8.97808 67.9956 -9.51536 30.0443 27.1647C18.3238 38.4938 10.117 52.044 5.39436 66.4854C21.772 127.28 73.0032 142.797 73.0032 142.797Z" fill="#272727"/>
<path d="M3.51215 120.121C7.6172 136.474 16.0599 151.961 28.8469 164.749C47.6816 183.584 72.366 193 97.0504 193V192.995L97.052 193H97.0553H150.115C169.411 193 185.057 177.356 185.057 158.06V148.663H138.962H97.052L97.0504 148.668V148.647C92.9273 148.647 88.8059 148.175 84.7762 147.206C80.7367 146.229 76.802 144.744 73.0442 142.791L73.0032 142.797C73.0032 142.797 21.772 127.28 5.39435 66.4854C-0.279988 83.841 -0.915606 102.484 3.51215 120.121Z" fill="white"/>
</svg>
