<svg width="216" height="66" viewBox="0 0 216 66" fill="none" xmlns="http://www.w3.org/2000/svg">
<path d="M20.016 37.912C16.848 37.912 14.128 37.368 11.856 36.28C9.584 35.16 7.728 33.704 6.288 31.912C4.848 30.088 3.776 28.136 3.072 26.056C2.4 23.944 2.064 21.896 2.064 19.912V18.856C2.064 16.68 2.416 14.536 3.12 12.424C3.824 10.28 4.896 8.344 6.336 6.616C7.808 4.888 9.648 3.512 11.856 2.488C14.096 1.432 16.736 0.903998 19.776 0.903998C22.944 0.903998 25.744 1.496 28.176 2.68C30.608 3.864 32.544 5.512 33.984 7.624C35.456 9.704 36.32 12.152 36.576 14.968H28.656C28.432 13.56 27.92 12.36 27.12 11.368C26.32 10.376 25.28 9.608 24 9.064C22.752 8.52 21.344 8.248 19.776 8.248C18.208 8.248 16.816 8.52 15.6 9.064C14.384 9.608 13.36 10.376 12.528 11.368C11.728 12.36 11.104 13.544 10.656 14.92C10.24 16.264 10.032 17.768 10.032 19.432C10.032 21.064 10.24 22.568 10.656 23.944C11.104 25.288 11.744 26.472 12.576 27.496C13.44 28.488 14.496 29.256 15.744 29.8C16.992 30.312 18.416 30.568 20.016 30.568C22.448 30.568 24.496 29.976 26.16 28.792C27.856 27.608 28.88 25.976 29.232 23.896H37.104C36.816 26.456 35.952 28.808 34.512 30.952C33.104 33.064 31.168 34.76 28.704 36.04C26.272 37.288 23.376 37.912 20.016 37.912ZM57.7826 37V29.224H56.4866V20.776C56.4866 19.432 56.1666 18.424 55.5266 17.752C54.8866 17.08 53.8626 16.744 52.4546 16.744C51.7506 16.744 50.8226 16.76 49.6706 16.792C48.5186 16.824 47.3346 16.872 46.1186 16.936C44.9026 17 43.7986 17.064 42.8066 17.128V10.648C43.5426 10.584 44.4066 10.52 45.3986 10.456C46.3906 10.392 47.4146 10.344 48.4706 10.312C49.5266 10.28 50.5186 10.264 51.4466 10.264C54.1346 10.264 56.3906 10.648 58.2146 11.416C60.0706 12.184 61.4786 13.352 62.4386 14.92C63.3986 16.456 63.8786 18.44 63.8786 20.872V37H57.7826ZM49.3826 37.672C47.4946 37.672 45.8306 37.336 44.3906 36.664C42.9826 35.992 41.8786 35.032 41.0786 33.784C40.2786 32.504 39.8786 30.984 39.8786 29.224C39.8786 27.304 40.3746 25.736 41.3666 24.52C42.3586 23.272 43.7506 22.36 45.5426 21.784C47.3346 21.176 49.3986 20.872 51.7346 20.872H57.3506V25.144H51.6866C50.3426 25.144 49.3026 25.48 48.5666 26.152C47.8626 26.792 47.5106 27.672 47.5106 28.792C47.5106 29.848 47.8626 30.712 48.5666 31.384C49.3026 32.024 50.3426 32.344 51.6866 32.344C52.5506 32.344 53.3186 32.2 53.9906 31.912C54.6946 31.592 55.2706 31.064 55.7186 30.328C56.1666 29.592 56.4226 28.568 56.4866 27.256L58.3106 29.176C58.1506 31 57.7026 32.536 56.9666 33.784C56.2626 35.032 55.2706 35.992 53.9906 36.664C52.7426 37.336 51.2066 37.672 49.3826 37.672ZM70.3946 37V10.696H76.4906V21.976H76.0586C76.0586 19.288 76.3946 17.048 77.0666 15.256C77.7706 13.464 78.8266 12.12 80.2346 11.224C81.6426 10.328 83.3546 9.88 85.3706 9.88H85.7066C88.7786 9.88 91.1146 10.888 92.7146 12.904C94.3466 14.888 95.1626 17.912 95.1626 21.976V37H87.4826V21.544C87.4826 20.136 87.0666 18.984 86.2346 18.088C85.4026 17.192 84.2826 16.744 82.8746 16.744C81.4346 16.744 80.2666 17.208 79.3706 18.136C78.5066 19.032 78.0746 20.216 78.0746 21.688V37H70.3946ZM144.58 37V10.696H152.26V37H144.58ZM141.076 16.36V10.696H152.26V16.36H141.076ZM147.556 8.104C146.116 8.104 145.044 7.736 144.34 7C143.668 6.232 143.332 5.272 143.332 4.12C143.332 2.936 143.668 1.976 144.34 1.24C145.044 0.471997 146.116 0.0879974 147.556 0.0879974C148.996 0.0879974 150.052 0.471997 150.724 1.24C151.428 1.976 151.78 2.936 151.78 4.12C151.78 5.272 151.428 6.232 150.724 7C150.052 7.736 148.996 8.104 147.556 8.104ZM159.363 37V10.696H165.459V21.976H165.027C165.027 19.288 165.363 17.048 166.035 15.256C166.739 13.464 167.795 12.12 169.203 11.224C170.611 10.328 172.323 9.88 174.339 9.88H174.675C177.747 9.88 180.083 10.888 181.683 12.904C183.315 14.888 184.131 17.912 184.131 21.976V37H176.451V21.544C176.451 20.136 176.035 18.984 175.203 18.088C174.371 17.192 173.251 16.744 171.843 16.744C170.403 16.744 169.235 17.208 168.339 18.136C167.475 19.032 167.043 20.216 167.043 21.688V37H159.363ZM206.564 37V29.224H205.268V20.776C205.268 19.432 204.948 18.424 204.308 17.752C203.668 17.08 202.644 16.744 201.236 16.744C200.532 16.744 199.604 16.76 198.452 16.792C197.3 16.824 196.116 16.872 194.9 16.936C193.684 17 192.58 17.064 191.588 17.128V10.648C192.324 10.584 193.188 10.52 194.18 10.456C195.172 10.392 196.196 10.344 197.252 10.312C198.308 10.28 199.3 10.264 200.228 10.264C202.916 10.264 205.172 10.648 206.996 11.416C208.852 12.184 210.26 13.352 211.22 14.92C212.18 16.456 212.66 18.44 212.66 20.872V37H206.564ZM198.164 37.672C196.276 37.672 194.612 37.336 193.172 36.664C191.764 35.992 190.66 35.032 189.86 33.784C189.06 32.504 188.66 30.984 188.66 29.224C188.66 27.304 189.156 25.736 190.148 24.52C191.14 23.272 192.532 22.36 194.324 21.784C196.116 21.176 198.18 20.872 200.516 20.872H206.132V25.144H200.468C199.124 25.144 198.084 25.48 197.348 26.152C196.644 26.792 196.292 27.672 196.292 28.792C196.292 29.848 196.644 30.712 197.348 31.384C198.084 32.024 199.124 32.344 200.468 32.344C201.332 32.344 202.1 32.2 202.772 31.912C203.476 31.592 204.052 31.064 204.5 30.328C204.948 29.592 205.204 28.568 205.268 27.256L207.092 29.176C206.932 31 206.484 32.536 205.748 33.784C205.044 35.032 204.052 35.992 202.772 36.664C201.524 37.336 199.988 37.672 198.164 37.672Z" fill="#272727"/>
<path d="M113.659 37.336C111.003 37.336 108.859 37.016 107.227 36.376C105.595 35.704 104.395 34.6 103.627 33.064C102.891 31.496 102.523 29.384 102.523 26.728V3.592H109.675V27.016C109.675 28.264 109.995 29.224 110.635 29.896C111.307 30.536 112.251 30.856 113.467 30.856H117.355V37.336H113.659ZM98.5391 16.312V10.696H117.355V16.312H98.5391ZM134.472 37.336C131.816 37.336 129.672 37.016 128.04 36.376C126.408 35.704 125.208 34.6 124.44 33.064C123.704 31.496 123.336 29.384 123.336 26.728V3.592H130.488V27.016C130.488 28.264 130.808 29.224 131.448 29.896C132.12 30.536 133.064 30.856 134.28 30.856H138.168V37.336H134.472ZM119.352 16.312V10.696H138.168V16.312H119.352Z" fill="white"/>
<path d="M86.36 62L91.34 47.4H95.98L101.1 62H98.18L93.84 49.34L94.86 49.78H92.36L93.4 49.34L89.2 62H86.36ZM89.84 58.12L90.74 55.72H96.66L97.54 58.12H89.84ZM103.049 66V51.14H105.249V55.82L104.909 55.8C104.962 54.6933 105.189 53.7667 105.589 53.02C106.002 52.2733 106.549 51.72 107.229 51.36C107.909 50.9867 108.669 50.8 109.509 50.8C110.282 50.8 110.975 50.94 111.589 51.22C112.215 51.5 112.749 51.8933 113.189 52.4C113.642 52.9067 113.989 53.5 114.229 54.18C114.469 54.8467 114.589 55.5667 114.589 56.34V56.76C114.589 57.5467 114.469 58.28 114.229 58.96C114.002 59.6267 113.662 60.22 113.209 60.74C112.769 61.2467 112.235 61.6467 111.609 61.94C110.982 62.22 110.282 62.36 109.509 62.36C108.695 62.36 107.949 62.1933 107.269 61.86C106.602 61.5133 106.062 60.9867 105.649 60.28C105.235 59.56 105.002 58.6333 104.949 57.5L105.829 58.84V66H103.049ZM108.809 60.02C109.409 60.02 109.929 59.8733 110.369 59.58C110.822 59.2867 111.175 58.88 111.429 58.36C111.682 57.8267 111.809 57.2267 111.809 56.56C111.809 55.8667 111.682 55.2667 111.429 54.76C111.175 54.2533 110.822 53.86 110.369 53.58C109.929 53.2867 109.409 53.14 108.809 53.14C108.262 53.14 107.755 53.26 107.289 53.5C106.835 53.74 106.462 54.0933 106.169 54.56C105.889 55.0267 105.749 55.5867 105.749 56.24V57.04C105.749 57.6667 105.895 58.2 106.189 58.64C106.482 59.08 106.862 59.42 107.329 59.66C107.795 59.9 108.289 60.02 108.809 60.02ZM117.033 66V51.14H119.233V55.82L118.893 55.8C118.946 54.6933 119.173 53.7667 119.573 53.02C119.986 52.2733 120.533 51.72 121.213 51.36C121.893 50.9867 122.653 50.8 123.493 50.8C124.266 50.8 124.96 50.94 125.573 51.22C126.2 51.5 126.733 51.8933 127.173 52.4C127.626 52.9067 127.973 53.5 128.213 54.18C128.453 54.8467 128.573 55.5667 128.573 56.34V56.76C128.573 57.5467 128.453 58.28 128.213 58.96C127.986 59.6267 127.646 60.22 127.193 60.74C126.753 61.2467 126.22 61.6467 125.593 61.94C124.966 62.22 124.266 62.36 123.493 62.36C122.68 62.36 121.933 62.1933 121.253 61.86C120.586 61.5133 120.046 60.9867 119.633 60.28C119.22 59.56 118.986 58.6333 118.933 57.5L119.813 58.84V66H117.033ZM122.793 60.02C123.393 60.02 123.913 59.8733 124.353 59.58C124.806 59.2867 125.16 58.88 125.413 58.36C125.666 57.8267 125.793 57.2267 125.793 56.56C125.793 55.8667 125.666 55.2667 125.413 54.76C125.16 54.2533 124.806 53.86 124.353 53.58C123.913 53.2867 123.393 53.14 122.793 53.14C122.246 53.14 121.74 53.26 121.273 53.5C120.82 53.74 120.446 54.0933 120.153 54.56C119.873 55.0267 119.733 55.5867 119.733 56.24V57.04C119.733 57.6667 119.88 58.2 120.173 58.64C120.466 59.08 120.846 59.42 121.313 59.66C121.78 59.9 122.273 60.02 122.793 60.02Z" fill="white"/>
</svg>
